<svg viewBox="0 0 144 144" fill="none" xmlns="http://www.w3.org/2000/svg">
<g clip-path="url(#clip0_149_667)">
<path d="M39.9497 67.4791C40.6155 74.3801 39.3916 80.8585 35.5844 86.7389C35.2416 87.2691 35.3452 87.5641 35.7758 87.9748C37.1791 89.3143 38.5983 90.6499 39.8899 92.093C40.6275 92.9143 41.0022 92.7469 41.6959 92.0492C48.7123 84.9808 55.7766 77.9522 62.8049 70.8957C63.8096 69.8871 65.5916 68.9781 65.5358 67.7701C65.4839 66.7256 63.8494 65.709 62.8328 64.7641C59.6555 61.818 58.2283 58.3137 59.3884 54.02C60.4369 50.125 63.7179 47.3462 67.6805 46.8558C71.7867 46.3495 75.6179 48.2273 77.647 51.7436C79.6563 55.2239 79.433 59.6811 76.9135 62.8146C75.6697 64.3575 74.2026 65.7289 72.7754 67.1163C72.2053 67.6705 72.1814 67.9934 72.7754 68.5276C73.9196 69.5522 74.9282 71.398 76.1282 71.5176C77.372 71.6412 78.4204 69.7196 79.437 68.5954C84.2847 63.2213 92.0347 64.2738 95.4751 69.301C98.3096 73.4392 97.6478 79.1323 93.9203 82.4612C90.2288 85.7542 84.5598 85.8578 80.8004 82.6206C79.4809 81.4844 78.269 80.2246 77.073 78.9568C76.4431 78.2911 76.0763 78.1595 75.3348 78.909C67.5131 86.7947 59.6515 94.6406 51.782 102.474C51.2199 103.033 51.0883 103.359 51.7381 103.961C53.1972 105.317 54.6005 106.732 55.9719 108.179C56.4822 108.722 56.829 108.73 57.4509 108.339C62.8926 104.926 68.8446 103.467 75.2391 103.973C87.2308 104.922 97.7634 101.558 106.602 93.3249C112.877 87.4804 116.736 80.2685 118.322 71.8366C118.386 71.4937 118.466 71.1549 118.542 70.816C118.896 69.2771 119.837 68.5196 121.113 68.7429C122.369 68.9661 123.058 69.9987 122.803 71.5894C121.42 80.2127 117.848 87.8273 111.864 94.198C101.977 104.723 89.7464 109.379 75.3508 108.327C70.212 107.952 65.3643 108.873 60.8236 111.361C60.0861 111.767 59.7552 112.011 60.2416 112.991C61.3897 115.308 61.0149 117.576 59.2449 119.474C57.5466 121.292 55.7805 123.054 53.9587 124.748C51.5229 127.013 48.4372 127.356 45.5709 125.657C44.7735 125.187 44.4187 125.35 43.8526 125.92C40.0375 129.783 36.1744 133.599 32.3633 137.462C31.5261 138.311 30.6131 138.805 29.4251 139.049C21.7788 140.611 14.1525 142.25 6.51812 143.857C2.40794 144.722 -0.705599 141.632 0.147534 137.526C1.77407 129.692 3.42851 121.862 5.05504 114.028C5.23444 113.155 5.69688 112.505 6.3148 111.887C10.2336 107.988 14.1206 104.057 18.0553 100.17C18.6773 99.5562 18.7889 99.1655 18.2945 98.3323C16.6321 95.5376 17.0507 92.3163 19.3071 89.9442C20.9855 88.1741 22.7077 86.4399 24.4857 84.7695C26.3275 83.0432 28.5281 82.5887 30.8204 83.6691C31.9008 84.1794 32.2277 83.8246 32.6862 82.9675C35.0702 78.5024 36.011 73.7781 35.6642 68.723C34.5359 52.4652 40.2647 39.1336 53.2889 29.2705C78.8071 9.94289 116.584 24.5622 122.516 55.9495C122.656 56.6831 122.795 57.4166 122.895 58.1542C123.094 59.6093 122.325 60.7336 121.045 60.901C119.869 61.0565 118.841 60.2153 118.601 58.808C118.095 55.814 117.433 52.8598 116.241 50.0532C110.273 36.016 99.8285 27.5044 84.6874 25.4073C63.4268 22.4652 44.2234 36.6698 40.3963 57.8113C39.8262 61.0047 39.6667 64.2379 39.9497 67.4791ZM49.1269 122.249C49.9761 122.32 50.6697 121.886 51.2916 121.26C52.7667 119.781 54.2298 118.286 55.7327 116.835C56.7413 115.862 56.6616 115.017 55.6889 114.048C47.0898 105.48 38.5106 96.8931 29.9394 88.2977C28.9786 87.3329 28.1295 87.2372 27.1528 88.2499C25.7016 89.7529 24.1907 91.2 22.7356 92.695C21.3164 94.1502 21.2845 95.5774 22.6997 96.9927C30.7806 105.094 38.8774 113.179 46.9662 121.272C47.5442 121.862 48.194 122.272 49.1269 122.249ZM8.53135 118.999C8.48351 119.143 8.3998 119.322 8.35993 119.51C7.08023 125.633 5.80053 131.757 4.52482 137.884C4.174 139.559 4.46502 139.826 6.19122 139.463C8.96191 138.885 11.7366 138.319 14.5033 137.737C18.0354 136.991 21.5675 136.238 25.004 135.508C19.5025 129.999 14.0408 124.525 8.53135 118.999ZM43.6972 96.0359C44.8573 97.1402 45.9336 98.0372 46.8466 99.0778C47.624 99.9628 48.0904 100.062 48.9834 99.1336C52.0451 95.9402 55.2145 92.8465 58.3439 89.717C62.9843 85.0764 67.6128 80.42 72.2851 75.8073C72.9309 75.1695 73.0266 74.7987 72.301 74.1808C71.4678 73.4751 70.6785 72.7017 69.9848 71.8605C69.2712 70.9914 68.8247 71.0432 68.0314 71.8446C61.5292 78.4226 54.9753 84.9529 48.4293 91.4831C46.9104 92.994 45.3476 94.4492 43.6972 96.0359ZM26.5388 107.139C26.4152 106.979 26.3355 106.852 26.2319 106.748C24.9322 105.445 23.6166 104.157 22.337 102.833C21.7828 102.263 21.5715 102.829 21.3084 103.092C17.856 106.533 14.4235 110.001 10.9552 113.426C10.413 113.96 10.3213 114.275 10.9233 114.829C12.0595 115.87 13.1478 116.97 14.1963 118.098C14.7186 118.657 15.0255 118.704 15.5996 118.118C19.0201 114.646 22.4884 111.217 25.9368 107.769C26.1481 107.569 26.3395 107.35 26.5388 107.139ZM41.4926 122.077C41.357 121.91 41.2733 121.782 41.1697 121.678C39.87 120.375 38.5505 119.087 37.2708 117.759C36.8163 117.289 36.609 117.64 36.3379 117.915C32.8217 121.439 29.3095 124.971 25.7734 128.476C25.307 128.938 25.307 129.217 25.7774 129.664C26.9654 130.796 28.1414 131.948 29.2577 133.152C29.8078 133.746 30.1068 133.511 30.5533 133.057C33.9938 129.596 37.4541 126.156 40.9065 122.707C41.1099 122.508 41.2972 122.292 41.4926 122.077ZM86.8043 69.3568C86.0189 69.3808 84.8708 69.6479 84.0017 70.4133C82.5147 71.7249 81.1473 73.1761 79.7041 74.5435C79.2736 74.9502 79.457 75.1934 79.7799 75.5123C81.0915 76.8 82.3273 78.1794 83.7147 79.3754C85.6322 81.0299 88.4388 81.0618 90.4959 79.6107C92.4971 78.2034 93.3423 75.6558 92.5928 73.2718C91.8672 70.9475 89.6467 69.3369 86.8043 69.3568ZM68.9164 51.0857C66.6241 51.2492 64.8461 52.2539 63.8733 54.4107C62.8767 56.6233 63.2275 58.7043 64.8142 60.5024C65.9304 61.7661 67.1982 62.8984 68.3742 64.1103C68.7808 64.5329 69.0719 64.7043 69.5662 64.1781C70.7901 62.8705 72.1535 61.6904 73.3017 60.3269C74.8086 58.5409 75.0837 56.4718 74.0591 54.3429C73.0385 52.2259 71.2685 51.2053 68.9164 51.0857ZM29.6364 110.217C26.8857 112.979 24.1389 115.718 21.42 118.485C20.3476 119.573 18.3384 120.658 18.4859 121.786C18.6533 123.046 20.535 124.051 21.6074 125.223C22.0978 125.757 22.3848 125.717 22.8712 125.223C26.479 121.583 30.1148 117.975 33.7067 114.387C32.3393 112.983 31.0198 111.632 29.6364 110.217Z" fill="url(#paint0_linear_149_667)"/>
<path d="M59.492 0C60.4568 0.0598007 61.1864 0.669767 61.4814 1.72226C62.187 4.24585 62.8727 6.77342 63.5185 9.31296C63.8574 10.6525 63.1996 11.7448 61.9558 12.0877C60.8116 12.4027 59.7273 11.8246 59.3445 10.509C58.5911 7.89767 57.8735 5.27043 57.2516 2.62724C56.9167 1.20797 57.9452 0.0159468 59.492 0Z" fill="url(#paint1_linear_149_667)"/>
<path d="M134.313 54.0998C132.961 54.02 132.184 53.4978 131.901 52.4014C131.614 51.2891 132.04 50.2885 133.073 49.9656C135.903 49.0845 138.774 48.3031 141.664 47.6533C142.72 47.4141 143.577 48.1317 143.892 49.2121C144.211 50.3044 143.833 51.341 142.792 51.6798C139.926 52.6048 137 53.3463 134.313 54.0998Z" fill="url(#paint2_linear_149_667)"/>
<path d="M92.2021 122.26C93.0393 122.344 93.8406 122.743 94.1157 123.708C94.8851 126.419 95.6465 129.138 96.3003 131.876C96.5953 133.116 95.9296 134.017 94.7216 134.356C93.5536 134.679 92.5609 134.193 92.2141 133.068C91.3729 130.33 90.6234 127.555 89.9616 124.768C89.6547 123.484 90.7829 122.284 92.2021 122.26Z" fill="url(#paint3_linear_149_667)"/>
<path d="M92.1861 12.1875C90.731 12.1596 89.6466 10.8958 89.9775 9.52836C90.6313 6.83733 91.341 4.15826 92.1423 1.51108C92.5011 0.331015 93.4738 -0.207191 94.7256 0.0718787C95.8976 0.335002 96.5833 1.43932 96.2724 2.70709C95.6226 5.3463 94.897 7.96955 94.1754 10.5888C93.8884 11.6373 93.099 12.0799 92.1861 12.1875Z" fill="url(#paint4_linear_149_667)"/>
<path d="M12.0077 47.5854C14.7305 48.3429 17.6647 49.0725 20.5271 50.0054C21.5357 50.3323 21.9503 51.3728 21.6074 52.4811C21.2526 53.6213 20.3835 54.2951 19.2314 54.028C16.4408 53.3742 13.6741 52.6087 10.9273 51.7874C9.85891 51.4685 9.37653 50.5316 9.58383 49.4273C9.80708 48.2512 10.6323 47.6811 12.0077 47.5854Z" fill="url(#paint5_linear_149_667)"/>
<path d="M143.992 84.5383C143.976 85.9934 142.836 87.0579 141.476 86.7429C138.718 86.109 135.979 85.3834 133.272 84.5622C132.088 84.2034 131.554 83.2067 131.937 81.9549C132.311 80.723 133.264 80.1529 134.484 80.4439C137.139 81.0778 139.774 81.8074 142.401 82.5569C143.402 82.8439 143.932 83.6093 143.992 84.5383Z" fill="url(#paint6_linear_149_667)"/>
<path d="M34.9307 27.4964C34.1652 27.5402 33.5991 27.1575 33.0928 26.6512C31.3347 24.8931 29.5647 23.1469 27.8265 21.3688C26.7382 20.2565 26.6903 18.9967 27.6232 18.0718C28.568 17.1349 29.7879 17.1867 30.9161 18.2911C32.73 20.0612 34.516 21.8671 36.302 23.6612C36.9917 24.3548 37.2509 25.196 36.8761 26.117C36.5333 26.9622 35.8715 27.4525 34.9307 27.4964Z" fill="url(#paint7_linear_149_667)"/>
<path d="M126.579 114.809C126.479 115.734 126.112 116.428 125.323 116.787C124.549 117.141 123.704 117.145 123.082 116.547C121.009 114.546 118.94 112.537 116.971 110.432C116.166 109.571 116.277 108.474 117.142 107.613C118.059 106.7 119.179 106.648 120.084 107.494C122.114 109.395 124.043 111.409 126.004 113.382C126.403 113.793 126.503 114.339 126.579 114.809Z" fill="url(#paint8_linear_149_667)"/>
<path d="M126.571 19.5428C126.535 20.2724 126.232 20.8704 125.713 21.3847C123.947 23.1349 122.209 24.9169 120.427 26.6511C119.307 27.7395 118.071 27.7834 117.138 26.8505C116.209 25.9216 116.257 24.6698 117.342 23.5614C119.116 21.7475 120.918 19.9654 122.724 18.1794C123.409 17.4977 124.215 17.2186 125.171 17.5933C126.052 17.9482 126.443 18.6498 126.571 19.5428Z" fill="url(#paint9_linear_149_667)"/>
</g>
<defs>
<linearGradient id="paint0_linear_149_667" x1="61.4661" y1="20.5708" x2="61.4661" y2="144.003" gradientUnits="userSpaceOnUse">
<stop/>
<stop offset="1"/>
</linearGradient>
<linearGradient id="paint1_linear_149_667" x1="60.3976" y1="0" x2="60.3976" y2="12.1719" gradientUnits="userSpaceOnUse">
<stop/>
<stop offset="1"/>
</linearGradient>
<linearGradient id="paint2_linear_149_667" x1="137.908" y1="47.6072" x2="137.908" y2="54.0998" gradientUnits="userSpaceOnUse">
<stop/>
<stop offset="1"/>
</linearGradient>
<linearGradient id="paint3_linear_149_667" x1="93.1404" y1="122.26" x2="93.1404" y2="134.454" gradientUnits="userSpaceOnUse">
<stop/>
<stop offset="1"/>
</linearGradient>
<linearGradient id="paint4_linear_149_667" x1="93.1325" y1="-0.000488281" x2="93.1325" y2="12.1875" gradientUnits="userSpaceOnUse">
<stop/>
<stop offset="1"/>
</linearGradient>
<linearGradient id="paint5_linear_149_667" x1="15.6313" y1="47.5854" x2="15.6313" y2="54.0863" gradientUnits="userSpaceOnUse">
<stop/>
<stop offset="1"/>
</linearGradient>
<linearGradient id="paint6_linear_149_667" x1="137.903" y1="80.3691" x2="137.903" y2="86.7984" gradientUnits="userSpaceOnUse">
<stop/>
<stop offset="1"/>
</linearGradient>
<linearGradient id="paint7_linear_149_667" x1="32.006" y1="17.4126" x2="32.006" y2="27.4998" gradientUnits="userSpaceOnUse">
<stop/>
<stop offset="1"/>
</linearGradient>
<linearGradient id="paint8_linear_149_667" x1="121.502" y1="106.893" x2="121.502" y2="117.03" gradientUnits="userSpaceOnUse">
<stop/>
<stop offset="1"/>
</linearGradient>
<linearGradient id="paint9_linear_149_667" x1="121.526" y1="17.4258" x2="121.526" y2="27.5115" gradientUnits="userSpaceOnUse">
<stop/>
<stop offset="1"/>
</linearGradient>
<clipPath id="clip0_149_667">
<rect width="144" height="144" fill="white"/>
</clipPath>
</defs>
</svg>
