<svg viewBox="0 0 141 146" fill="none" xmlns="http://www.w3.org/2000/svg">
<g clip-path="url(#clip0_149_659)">
<path d="M131.703 146C130.241 145.131 129.964 143.824 129.972 142.182C130.032 129.735 130.006 117.284 130.006 104.837C130.006 102.044 130.521 101.526 133.301 101.526C133.85 101.526 134.395 101.526 135.179 101.526C131.653 96.9041 128.279 92.4768 124.791 87.9048C121.326 92.4425 117.94 96.885 114.395 101.526C115.243 101.526 115.842 101.526 116.436 101.526C118.963 101.526 119.542 102.093 119.542 104.581C119.546 110.19 119.542 115.794 119.542 121.402C119.542 128.386 119.542 135.37 119.542 142.358C119.542 145.021 119.489 145.105 117.247 146.004C117.152 146.004 117.058 146.004 116.963 146.004C115.577 145.147 115.255 143.901 115.262 142.304C115.319 130.573 115.281 118.838 115.315 107.107C115.319 106.09 115.149 105.621 114.032 105.778C113.289 105.88 112.521 105.77 111.767 105.804C110.468 105.861 109.426 105.412 108.858 104.208C108.317 103.057 108.646 102.021 109.4 101.038C112.861 96.5307 116.3 92.0082 119.746 87.4895C120.636 86.3236 121.504 85.1387 122.42 83.9881C123.84 82.205 125.692 82.1364 127.067 83.9157C131.525 89.6879 135.929 95.4982 140.349 101.301C141.03 102.196 141.216 103.206 140.689 104.242C140.148 105.309 139.239 105.804 138.042 105.808C136.823 105.812 135.122 105.381 134.509 106.006C133.71 106.822 134.263 108.513 134.259 109.828C134.24 120.656 134.21 131.488 134.285 142.316C134.301 144.194 133.873 145.486 131.979 146.011C131.892 146 131.797 146 131.703 146Z" fill="url(#paint0_linear_149_659)"/>
<path d="M98.2656 146C97.1597 145.303 96.834 144.308 96.8378 143.005C96.8719 127.373 96.8719 111.74 96.8454 96.1079C96.8416 94.3553 97.3377 92.8656 98.4776 91.5473C99.5305 90.3281 100.496 89.0365 101.545 87.8135C102.458 86.7505 103.746 86.6019 104.662 87.3868C105.59 88.1792 105.632 89.4099 104.768 90.5605C104.711 90.6367 104.655 90.7167 104.586 90.7777C101.519 93.4599 100.962 96.847 101.023 100.825C101.238 114.887 101.091 128.954 101.129 143.017C101.132 144.328 100.822 145.326 99.682 145.996C99.2124 146 98.739 146 98.2656 146Z" fill="url(#paint1_linear_149_659)"/>
<path d="M45.6126 58.6211C45.6126 56.6742 45.6126 54.7234 45.6126 52.7765C45.6126 50.7039 45.7755 48.6312 44.787 46.6614C44.3704 45.8347 44.3818 44.825 44.3856 43.8649C44.4007 38.7823 44.3742 33.6959 44.397 28.6134C44.4159 24.2852 46.7033 20.6695 50.5094 19.2217C54.5503 17.6862 58.2163 18.4597 61.2991 21.5458C61.8406 22.0868 62.0527 22.0677 62.5829 21.5534C66.8965 17.3776 72.3917 17.4081 76.8227 21.6296C77.3264 22.1097 77.5081 22.0716 77.9891 21.5991C82.1626 17.4538 88.0478 17.3852 92.1342 21.481C92.8462 22.1935 93.0658 21.942 93.6188 21.3972C99.0723 16.067 108.018 18.4177 110.047 25.7063C110.722 28.1295 110.506 30.6289 110.388 33.0787C110.282 35.2695 110.763 36.6677 112.774 37.9936C116.69 40.5692 118.531 44.5964 118.603 49.2789C118.705 56.0226 118.652 62.7702 118.618 69.5177C118.603 72.1581 117.77 74.5508 116.103 76.6196C114.41 78.7228 112.714 80.8221 110.994 82.9062C109.892 84.2397 108.76 84.4568 107.711 83.592C106.684 82.7461 106.677 81.4964 107.718 80.2048C109.354 78.1779 110.998 76.1548 112.649 74.1393C113.842 72.6877 114.391 71.0189 114.388 69.1482C114.384 62.7359 114.407 56.3198 114.38 49.9076C114.353 43.6591 110.047 39.3424 103.878 39.3233C100.572 39.3119 97.2658 39.3081 93.9634 39.3271C90.7632 39.3424 88.5667 41.4531 88.578 44.4554C88.5894 47.4349 90.82 49.557 94.0088 49.5913C96.088 49.6142 98.1634 49.5837 100.243 49.599C101.685 49.6104 102.553 50.2619 102.659 51.4544C102.772 52.7422 102.113 53.588 100.886 53.7862C100.114 53.9119 100.152 54.3767 100.114 54.8758C99.9509 56.9104 99.8108 58.9487 99.6555 60.9833C99.4927 63.1283 98.864 63.696 96.7091 63.7303C94.2626 63.7722 91.8009 63.5436 89.3809 64.1609C84.1205 65.5058 80.1743 70.2912 79.8486 75.7509C79.7539 77.3169 79.6706 78.879 79.557 80.4449C79.4472 81.9613 78.5572 82.83 77.2393 82.7385C75.9895 82.6547 75.251 81.7632 75.323 80.2506C75.5047 76.3682 75.4744 72.4324 77.4097 68.8815C80.7916 62.6673 86.0293 59.5431 93.0696 59.4783C95.554 59.4555 95.554 59.4593 95.7017 57.0437C95.7623 56.0493 96.213 54.8034 95.7812 54.1291C95.3041 53.3861 93.9066 54.1138 93.0015 53.7938C90.5701 52.9403 88.222 53.3975 85.768 53.7519C82.8215 54.1786 80.2084 52.9823 78.1141 50.8296C77.5915 50.2924 77.368 50.1476 76.7431 50.7724C72.6265 54.8949 66.7753 54.8796 62.6056 50.761C62.0792 50.2428 61.8785 50.1819 61.3256 50.7382C58.3943 53.7023 54.8912 54.552 50.9488 53.2413C50.0247 52.9327 49.8505 53.047 49.858 54.0033C49.8959 58.5639 49.8656 63.1245 49.8846 67.6851C49.8883 68.8319 49.6081 69.773 48.4265 70.154C46.9003 70.6493 45.6543 69.5825 45.6354 67.7347C45.5899 64.7019 45.6126 61.6615 45.6126 58.6211ZM75.2889 36.0924C75.2889 33.6235 75.3078 31.1508 75.2851 28.6819C75.2548 25.2529 72.9143 22.7916 69.7066 22.7726C66.4875 22.7535 64.0826 25.1805 64.0523 28.5981C64.0069 33.635 64.0107 38.6718 64.0523 43.7049C64.0789 47.0729 66.567 49.6104 69.699 49.5875C72.8499 49.5647 75.251 47.0234 75.2851 43.6439C75.3078 41.1293 75.2889 38.6109 75.2889 36.0924ZM59.7956 36.1915C59.7956 33.6273 59.8259 31.0632 59.788 28.4991C59.735 25.1615 57.3756 22.7688 54.2095 22.7726C51.051 22.7764 48.6651 25.1996 48.6462 28.5143C48.6159 33.5969 48.6196 38.6756 48.6462 43.7582C48.6613 47.0729 51.0321 49.5494 54.1527 49.5951C57.3036 49.6409 59.7463 47.1339 59.788 43.743C59.8221 41.2245 59.7956 38.7061 59.7956 36.1915ZM85.5634 49.477C85.5445 49.3399 85.5635 49.176 85.4991 49.0656C82.7685 44.3106 84.8136 37.9136 90.0853 35.7419C90.5814 35.5362 90.7102 35.2695 90.7064 34.797C90.6837 32.4691 90.767 30.1374 90.6383 27.8171C90.4792 24.8948 87.9645 22.7269 84.9992 22.7764C82.1323 22.8221 79.6252 25.0739 79.5797 27.9123C79.4926 33.4216 79.4813 38.9309 79.5835 44.4364C79.6403 47.4996 82.4958 49.7895 85.5634 49.477ZM100.557 35.0447C100.557 35.0561 100.557 35.0675 100.557 35.079C102.11 35.079 103.67 35.0142 105.215 35.1056C106.082 35.1552 106.219 34.8427 106.2 34.0845C106.154 32.2367 106.207 30.3888 106.181 28.541C106.132 25.2377 103.772 22.8069 100.633 22.7764C97.4741 22.7459 95.0768 25.0891 94.9556 28.4076C94.8875 30.3012 94.9708 32.1986 94.9253 34.0922C94.9064 34.8427 95.1564 35.0828 95.8949 35.0599C97.4476 35.0104 99.0003 35.0447 100.557 35.0447Z" fill="url(#paint2_linear_149_659)"/>
<path d="M34.8458 18.8785C31.2896 14.2151 27.9115 9.78783 24.4727 5.28057C21.0378 9.78402 17.6785 14.1846 14.2549 18.6728C15.0654 19.0538 15.8569 18.8404 16.6143 18.8671C18.4587 18.9319 19.2275 19.6367 19.2275 21.4503C19.2351 34.5149 19.2351 47.5794 19.2275 60.644C19.2275 62.2251 18.4511 63.1434 17.1673 63.1738C15.8531 63.2005 14.9934 62.2137 14.9896 60.5868C14.9821 48.6157 14.9669 36.6447 15.0124 24.6736C15.0162 23.4582 14.7851 22.94 13.4937 23.1267C12.706 23.241 11.8917 23.1343 11.0889 23.1496C9.92999 23.1686 9.07788 22.6505 8.57419 21.6294C8.07049 20.6045 8.20683 19.6024 8.89988 18.6918C10.2178 16.9583 11.5358 15.2247 12.8575 13.4912C15.8721 9.53636 18.8904 5.58537 21.9088 1.63438C23.5486 -0.51066 25.3627 -0.53733 26.9836 1.57723C31.2442 7.14367 35.4858 12.7254 39.7501 18.2842C40.5568 19.3357 41.0037 20.4292 40.3372 21.6941C39.7085 22.8905 38.6329 23.18 37.3529 23.1724C36.2432 23.1648 34.7624 22.6466 34.1186 23.4048C33.5733 24.0449 33.9406 25.4851 33.9368 26.571C33.9331 37.8296 33.9293 49.0882 33.9406 60.3468C33.9406 61.2307 33.88 62.0613 33.1415 62.6709C31.9145 63.6882 30.0323 62.9986 29.7293 61.3984C29.6422 60.9374 29.6839 60.4497 29.6839 59.9772C29.6839 47.3889 29.6839 34.8006 29.6839 22.2085C29.6839 19.4272 30.2254 18.8862 32.9825 18.8823C33.5089 18.8785 34.0277 18.8785 34.8458 18.8785Z" fill="url(#paint3_linear_149_659)"/>
<path d="M26.5973 101.522C23.0374 96.8583 19.6592 92.431 16.2053 87.9047C12.7438 92.4386 9.36569 96.8697 5.81333 101.522C6.8851 101.522 7.75236 101.503 8.61962 101.526C10.1724 101.567 10.9715 102.341 10.9752 103.914C10.9942 110.281 10.9942 116.648 10.9715 123.014C10.9677 124.428 10.0512 125.353 8.82413 125.334C7.59709 125.315 6.74876 124.393 6.74119 122.953C6.72225 117.63 6.70332 112.312 6.76012 106.993C6.77148 105.972 6.48745 105.671 5.51036 105.778C4.71505 105.865 3.9046 105.774 3.10551 105.8C1.85953 105.842 0.878654 105.385 0.303004 104.257C-0.284006 103.107 0.0341156 102.074 0.787762 101.091C4.82109 95.8295 8.94153 90.6289 12.8158 85.2529C15.1941 81.9573 17.0953 81.782 19.6213 85.2987C23.4047 90.5679 27.4418 95.6543 31.3956 100.798C32.2364 101.887 32.7439 102.992 32.0584 104.322C31.4032 105.587 30.2557 105.827 28.9416 105.816C25.6884 105.785 25.6884 105.812 25.6884 109.096C25.6884 120.355 25.6808 131.613 25.696 142.872C25.696 144.152 25.499 145.295 24.094 145.687C22.7306 146.068 21.5452 145.154 21.4581 143.695C21.4051 142.796 21.443 141.889 21.443 140.986C21.443 128.92 21.443 116.853 21.443 104.787C21.443 102.055 21.958 101.529 24.6318 101.529C25.1923 101.522 25.7528 101.522 26.5973 101.522Z" fill="url(#paint4_linear_149_659)"/>
<path d="M53.4938 120.945C53.4938 113.63 53.4824 106.315 53.5089 98.9996C53.5127 97.9823 53.3006 97.1441 52.5091 96.4697C46.5595 91.4252 45.1166 84.731 45.6241 77.332C45.7149 76.0023 46.6049 75.126 47.7714 75.1336C48.9681 75.1412 49.8051 76.0061 49.8467 77.3586C49.8846 78.6883 49.8581 80.018 49.8581 81.3477C49.8695 85.7445 51.301 89.5888 54.5921 92.5149C56.9477 94.6066 57.8149 97.0298 57.7884 100.169C57.6748 114.278 57.7392 128.382 57.7392 142.491C57.7392 142.967 57.796 143.455 57.7013 143.912C57.4627 145.074 56.7545 145.764 55.5275 145.722C54.3724 145.68 53.7248 144.987 53.5203 143.882C53.4446 143.466 53.49 143.028 53.49 142.601C53.4938 135.385 53.4938 128.165 53.4938 120.945Z" fill="url(#paint5_linear_149_659)"/>
<path d="M6.73743 137.927C6.73743 136.17 6.72228 134.41 6.74121 132.654C6.76015 131.11 7.58575 130.185 8.88096 130.2C10.161 130.215 10.9715 131.152 10.9791 132.707C10.9942 136.22 10.9942 139.736 10.9791 143.249C10.9715 144.88 10.2595 145.699 8.8999 145.718C7.47592 145.741 6.75258 144.907 6.73743 143.196C6.72607 141.443 6.73743 139.683 6.73743 137.927Z" fill="url(#paint6_linear_149_659)"/>
</g>
<defs>
<linearGradient id="paint0_linear_149_659" x1="124.792" y1="82.6155" x2="124.792" y2="146.011" gradientUnits="userSpaceOnUse">
<stop/>
<stop offset="1"/>
</linearGradient>
<linearGradient id="paint1_linear_149_659" x1="101.113" y1="86.8904" x2="101.113" y2="146" gradientUnits="userSpaceOnUse">
<stop/>
<stop offset="1"/>
</linearGradient>
<linearGradient id="paint2_linear_149_659" x1="81.5235" y1="18.4424" x2="81.5235" y2="84.1083" gradientUnits="userSpaceOnUse">
<stop/>
<stop offset="1"/>
</linearGradient>
<linearGradient id="paint3_linear_149_659" x1="24.4661" y1="0.00830078" x2="24.4661" y2="63.1744" gradientUnits="userSpaceOnUse">
<stop/>
<stop offset="1"/>
</linearGradient>
<linearGradient id="paint4_linear_149_659" x1="16.1886" y1="82.7209" x2="16.1886" y2="145.774" gradientUnits="userSpaceOnUse">
<stop/>
<stop offset="1"/>
</linearGradient>
<linearGradient id="paint5_linear_149_659" x1="51.6595" y1="75.1335" x2="51.6595" y2="145.724" gradientUnits="userSpaceOnUse">
<stop/>
<stop offset="1"/>
</linearGradient>
<linearGradient id="paint6_linear_149_659" x1="8.86105" y1="130.2" x2="8.86105" y2="145.719" gradientUnits="userSpaceOnUse">
<stop/>
<stop offset="1"/>
</linearGradient>
<clipPath id="clip0_149_659">
<rect width="141" height="146" fill="black"/>
</clipPath>
</defs>
</svg>
