<svg viewBox="0 0 144 145" fill="none" xmlns="http://www.w3.org/2000/svg">
<path d="M58.3276 0C58.4492 8.06815 58.5821 16.1363 58.6885 24.2082C58.7075 25.6587 58.1149 26.2706 56.5614 26.1837C55.3117 26.1157 55.0876 26.5501 55.137 27.6833C55.2472 30.1347 55.1864 32.5899 55.2244 35.0451C55.2358 35.8761 55.194 36.775 54.5407 37.2698C53.3973 38.1348 53.7164 38.8789 54.4115 39.7704C54.6964 40.1368 54.8825 40.5863 55.0838 41.0093C55.9878 42.9206 55.9802 42.9168 57.8756 42.1311C64.857 39.2302 71.8384 36.3331 78.8198 33.4322C79.0819 33.3227 79.3326 33.198 79.7238 33.0205C76.8827 31.3018 74.9455 28.9524 74.0035 25.8702C73.0501 22.754 73.3426 19.7247 74.8012 16.8086C77.2967 11.8265 83.017 9.09555 88.3689 10.3269C95.0275 11.8605 97.7775 16.1816 97.9294 25.5038C101.105 24.1856 104.227 22.8937 107.346 21.5982C111.273 19.9664 115.216 18.3686 119.117 16.6802C120.07 16.2685 120.363 16.514 120.731 17.3903C128.214 35.2793 135.738 53.1568 143.236 71.042C145.06 75.3896 143.582 78.9628 139.187 80.8023C138.302 81.1725 138.01 81.5691 138.443 82.4341C139.936 85.4332 139.734 88.3945 138.705 91.5485C137.322 95.7941 136.327 100.168 135.184 104.493C134.747 106.155 134.014 107.67 133.03 109.075C132.745 109.483 132.548 109.804 133.064 110.25C133.835 110.922 133.927 111.889 133.938 112.852C133.976 115.353 134.056 117.853 134.037 120.354C134.029 121.226 134.2 121.566 135.18 121.54C137.186 121.483 137.695 122.046 137.725 124.033C137.82 130.499 137.884 136.962 138.033 143.429C138.055 144.494 137.801 144.788 136.726 144.747C134.633 144.664 134.637 144.732 134.606 142.696C134.523 137.174 134.405 131.655 134.363 126.133C134.356 125.181 134.173 124.867 133.137 124.879C118.95 125.022 104.759 125.128 90.572 125.2C89.5198 125.204 89.216 125.438 89.2426 126.529C89.3907 132.142 89.4211 137.759 89.554 143.376C89.5768 144.377 89.4325 144.913 88.2854 144.72C87.8713 144.652 87.4307 144.683 87.0053 144.717C86.4356 144.762 86.1621 144.634 86.1545 143.965C86.0823 137.17 85.9646 130.375 85.8886 123.579C85.8734 122.216 86.8306 121.755 87.9891 121.876C89.2464 122.004 89.4553 121.521 89.4059 120.391C89.2919 117.94 89.3413 115.485 89.3033 113.03C89.2881 112.149 89.3527 111.239 90.0554 110.688C90.9632 109.974 90.8683 109.441 90.2643 108.55C89.1742 106.941 88.4981 105.113 88.2056 103.179C88.0879 102.404 87.9359 102.064 87.0661 102.495C86.0557 102.994 84.9656 103.288 84.2287 104.259C83.8033 104.822 83.0968 105.09 82.4435 105.381C76.2255 108.146 70.0076 110.911 63.8049 113.702C62.7147 114.193 61.7158 114.329 60.7852 113.456C59.8052 112.539 59.9078 111.496 60.3901 110.348C61.8487 106.884 61.3435 103.658 58.8442 100.878C56.3297 98.0794 53.0783 97.2521 49.5192 98.3664C45.9487 99.4845 43.8862 102.076 43.3545 105.77C43.0392 107.961 43.5748 109.981 44.9498 111.753C46.1235 113.26 47.5706 114.465 49.0976 115.598C51.2475 117.192 51.0689 119.326 48.6532 120.414C41.2843 123.727 33.8851 126.975 26.5315 130.318C25.4337 130.817 25.3426 130.137 25.0653 129.521C20.6782 119.776 16.2949 110.027 11.9116 100.281C8.24233 92.1227 4.56551 83.9676 0.90008 75.8088C-1.13205 71.2837 0.24676 67.6954 4.85038 65.6708C5.69362 65.3006 6.04687 64.9229 5.59486 64.039C4.63388 62.1693 4.78201 60.3071 5.36696 58.3165C6.77996 53.4817 8.02582 48.6015 9.34765 43.7402C9.80726 42.0443 10.8138 40.5749 11.4444 38.9809C12.0331 37.4889 10.3048 36.1254 10.51 34.3652C10.7682 32.1328 10.4872 29.8438 10.5176 27.5775C10.5289 26.7616 10.2745 26.5728 9.4806 26.5728C7.25475 26.5803 6.83693 26.1233 6.81034 23.9287C6.71538 15.9474 6.60903 7.97372 6.50268 0C6.69259 0 6.88251 0 7.07243 0C7.45227 0.313509 7.8321 0.298401 8.21194 0C8.7817 0 9.35145 0 9.92121 0C10.02 7.30892 10.1453 14.6178 10.1871 21.9268C10.1947 23.0108 10.4986 23.2412 11.5393 23.2224C17.1343 23.1166 22.7255 23.075 28.3205 23.0335C36.901 22.9731 45.4853 22.9353 54.0659 22.8824C54.647 22.8786 55.3231 23.0902 55.3003 22.0514C55.1256 14.7009 55.2737 7.3467 54.9167 0C55.1066 0 55.2965 0 55.4865 0C55.8663 0.302178 56.2461 0.268183 56.626 0C57.1881 0 57.7579 0 58.3276 0ZM64.3708 109.581C64.6747 109.702 64.9064 109.505 65.1533 109.392C70.3343 107.088 75.5153 104.784 80.6924 102.476C82.6752 101.592 83.0132 100.682 82.113 98.6799C79.5187 92.931 76.9055 87.1896 74.3302 81.4294C73.2248 78.9591 74.5543 77.1384 77.2359 77.3802C77.612 77.4142 77.988 77.501 78.3678 77.5086C81.0799 77.5841 83.8071 77.6672 86.1089 75.8693C89.0071 73.6067 90.158 69.7766 89.0071 66.3394C87.8562 62.9096 84.6389 60.5338 80.9621 60.3978C77.2625 60.2618 73.6427 62.6226 72.3018 66.1392C71.8308 67.3781 71.2269 68.4017 69.7607 68.4055C68.3439 68.4093 67.7856 67.3668 67.288 66.2223C64.6025 60.0503 61.8829 53.8934 59.1709 47.7328C58.2896 45.7346 58.02 45.6213 56.1018 46.4787C47.0389 50.5203 37.9798 54.5658 28.9207 58.6074C28.4459 58.8189 27.9825 59.004 27.6596 59.4686C26.4289 61.2363 24.8868 62.6943 23.0256 63.7897C22.528 64.0806 22.4216 64.4054 22.5128 64.9342C23.0332 67.9522 23.4624 70.9891 24.0511 73.992C24.7804 77.7315 24.9931 81.3916 22.9762 84.8364C21.491 87.3709 19.0791 88.2359 16.3253 88.0319C13.9095 87.8544 12.6636 86.2264 11.9799 83.9827C10.491 79.1252 8.87666 74.3055 7.35351 69.4556C7.08383 68.5906 6.80275 68.3866 5.91773 68.8097C3.46018 69.9881 2.77647 71.7785 3.95397 74.3999C11.5583 91.3181 19.174 108.229 26.7594 125.151C27.143 126.008 27.4507 126.239 28.3965 125.797C32.1645 124.036 35.978 122.382 39.7764 120.69C41.9263 119.73 44.0723 118.775 46.264 117.796C39.6169 111.394 38.2722 106.487 41.5274 100.773C44.2737 95.9528 50.0776 93.5505 55.4295 95.0236C61.693 96.7422 64.5266 101.35 64.3708 109.581ZM69.8101 63.0909C70.1899 62.5281 70.4444 62.1353 70.7179 61.7538C73.8326 57.3911 79.3516 55.5327 84.4338 57.1305C89.6414 58.7698 93.0675 63.4007 93.0789 68.8172C93.0941 76.4056 87.5333 81.656 79.6175 81.4558C78.402 81.4256 78.0564 81.5238 78.6451 82.8194C80.9697 87.9148 83.2108 93.0481 85.4214 98.1964C85.8316 99.1521 86.2039 99.2767 87.1573 98.8763C95.3845 95.4164 103.661 92.0585 111.873 88.5645C115.079 87.1972 118.46 86.1924 121.43 84.2925C121.935 83.9676 122.121 83.673 122 83.0422C121.548 80.6361 121.111 78.2187 120.788 75.7937C120.408 72.9608 119.519 70.1695 120.093 67.2459C120.765 63.8124 122.304 61.1457 125.958 60.1938C129.019 59.3968 131.423 60.7037 132.384 63.6877C133.813 68.1222 135.264 72.5491 136.661 76.9949C136.931 77.8561 137.212 78.079 138.101 77.6635C140.41 76.5907 141.17 74.857 140.167 72.466C133.064 55.5403 125.939 38.6259 118.866 21.6926C118.452 20.6992 118.068 20.7709 117.233 21.126C110.878 23.8116 104.508 26.4557 98.1308 29.0808C95.8365 30.0251 93.9943 28.5634 94.34 26.1157C94.5451 24.6577 94.5261 23.1997 94.5223 21.7379C94.5071 16.0456 88.7374 12.2986 83.4576 13.7415C79.758 14.7538 77.0992 17.972 76.8561 21.719C76.6016 25.6398 78.8502 29.1639 82.5726 30.6068C83.7349 31.0563 84.7719 31.5625 84.8061 33.0054C84.8441 34.5087 83.8071 35.1131 82.5954 35.5928C80.8823 36.2689 79.1807 36.9752 77.4752 37.674C72.0777 39.8875 66.6802 42.1047 61.3435 44.2917C64.1733 50.5619 66.9499 56.7339 69.8101 63.0909ZM115.204 90.9819C115.117 90.9631 115.018 90.9064 114.954 90.9328C107.319 94.0868 99.6881 97.2635 92.042 100.391C91.3051 100.693 91.2975 101.131 91.381 101.705C91.7799 104.429 92.8586 106.839 94.697 108.916C95.0996 109.369 95.5441 109.437 96.0796 109.437C106.654 109.434 117.233 109.434 127.807 109.43C128.263 109.43 128.765 109.547 129.072 109.03C130.026 107.413 131.256 105.944 131.758 104.081C133.201 98.7215 134.625 93.354 136.103 88.0055C136.304 87.2803 136.285 86.657 136.057 85.9582C133.782 78.9817 131.53 72.0014 129.27 65.0211C128.73 63.3629 127.777 62.9285 126.151 63.6009C125.24 63.9786 124.564 64.6132 124.146 65.5046C123.318 67.261 123.056 69.0967 123.379 71.0155C124.157 75.6615 124.928 80.3075 125.711 84.9497C125.79 85.4294 125.904 85.8487 125.263 86.0867C121.54 87.4691 119.337 90.3323 117.821 93.8111C117.396 94.7894 116.982 95.0236 115.956 94.4683C114.186 93.5089 114.148 93.5844 115.033 91.7449C115.151 91.507 115.402 91.2917 115.204 90.9819ZM32.6393 38.8714C32.6393 38.9583 32.6393 39.0451 32.6393 39.132C27.2798 39.132 21.9203 39.1282 16.5608 39.1396C16.0746 39.1396 15.5276 38.9583 15.1782 39.5626C14.3311 41.0244 13.2258 42.3351 12.7776 44.0235C11.3646 49.3456 9.9326 54.6602 8.47403 59.9672C8.26512 60.7264 8.25752 61.3987 8.50442 62.1542C10.7872 69.1269 13.0359 76.1148 15.2959 83.0951C15.8087 84.6778 16.6177 85.0781 18.1941 84.5342C19.1778 84.1943 19.9299 83.5748 20.3781 82.6343C21.1948 80.9308 21.51 79.1366 21.21 77.2706C20.4503 72.5755 19.6868 67.8767 18.8626 63.1929C18.7296 62.4337 18.8854 62.1126 19.5919 61.8293C21.9962 60.8699 23.8612 59.2344 25.2324 57.0587C25.5553 56.5488 25.9541 56.2579 26.4973 56.02C34.0978 52.6545 41.6832 49.2588 49.2799 45.8857C53.2872 44.1066 53.3746 43.7931 50.6967 40.1594C50.5828 40.0083 50.4498 39.8686 50.3511 39.7099C49.937 39.0489 49.3787 38.845 48.5734 38.8525C43.2633 38.8941 37.9532 38.8714 32.6393 38.8714ZM32.9431 35.7476C32.9431 35.657 32.9431 35.5625 32.9431 35.4719C38.918 35.4719 44.8966 35.453 50.8714 35.4908C51.6957 35.4946 51.9312 35.2755 51.9008 34.4709C51.821 32.1139 51.7754 29.7532 51.8058 27.3962C51.8172 26.4708 51.4374 26.3121 50.6245 26.3197C38.766 26.433 26.9075 26.5312 15.049 26.5954C14.0576 26.5992 13.8715 26.9731 13.9057 27.8532C13.9893 30.0667 14.0272 32.2877 13.9893 34.5049C13.9703 35.5021 14.3121 35.7778 15.2959 35.7703C21.1758 35.725 27.0595 35.7476 32.9431 35.7476ZM111.638 112.788C111.638 112.795 111.638 112.803 111.638 112.811C105.8 112.811 99.9616 112.833 94.1273 112.792C93.0903 112.784 92.6003 112.924 92.6801 114.148C92.8206 116.263 92.8244 118.393 92.7599 120.516C92.7295 121.585 93.1701 121.766 94.0969 121.759C105.91 121.649 117.727 121.559 129.543 121.491C130.394 121.487 130.717 121.245 130.683 120.357C130.603 118.378 130.55 116.391 130.626 114.412C130.671 113.173 130.368 112.735 129.004 112.754C123.219 112.837 117.43 112.788 111.638 112.788Z" fill="white"/>
</svg>
